<svg width="22" height="22" xmlns="http://www.w3.org/2000/svg" xmlns:xlink="http://www.w3.org/1999/xlink" overflow="hidden"><defs><clipPath id="clip0"><rect x="0" y="0" width="22" height="22"/></clipPath></defs><g clip-path="url(#clip0)"><path d="M13.0167 15.3083C12.8333 15.4917 12.7188 15.7437 12.7188 16.0187 12.7188 16.2938 12.8333 16.5458 13.0167 16.7292L16.1792 19.8687C16.3625 20.0521 16.6146 20.1667 16.8667 20.1667 17.1187 20.1667 17.3937 20.0521 17.5771 19.8687L17.9208 19.525 13.3604 14.9646 13.0167 15.3083Z"/><path d="M8.41042 7.21875C8.50208 7.12708 8.63958 7.08125 8.75417 7.08125 8.86875 7.08125 9.00625 7.12708 9.09792 7.21875L14.7812 12.8792C14.8729 12.9708 14.9187 13.1083 14.9187 13.2229 14.9187 13.3375 14.8729 13.475 14.7812 13.5667L14.0708 14.2542 18.6313 18.8146C18.9292 18.5167 19.2042 18.2417 19.3875 18.0583 19.8458 17.6229 20.1208 17.05 20.1437 16.4312 20.2125 15.4 19.9604 14.4146 19.6167 13.4521 19.25 12.6042 18.7687 11.8021 18.2417 11.0458 16.3625 8.22708 14.0021 5.775 11.2521 3.82708 10.7937 3.48333 10.3125 3.18542 9.80833 2.91042 8.6625 2.3375 7.44792 1.925 6.14167 1.83333 5.27083 1.76458 4.4 2.10833 3.80417 2.75L3.18542 3.36875 7.72292 7.92917 8.41042 7.21875Z"/><path d="M2.13125 5.82083 5.29375 8.98333C5.47708 9.16667 5.72917 9.28125 6.00417 9.28125 6.27917 9.28125 6.53125 9.16667 6.71458 8.98333L7.05833 8.61667 2.49792 4.05625 2.15417 4.4C1.97083 4.58333 1.85625 4.83542 1.85625 5.11042 1.85625 5.38542 1.94792 5.6375 2.13125 5.82083Z"/></g></svg>