<svg width="34" height="34" xmlns="http://www.w3.org/2000/svg" xmlns:xlink="http://www.w3.org/1999/xlink" overflow="hidden"><defs><clipPath id="clip0"><rect x="0" y="0" width="34" height="34"/></clipPath></defs><g clip-path="url(#clip0)"><path d="M13.8833 10.3417C14.1667 10.0583 14.3438 9.66875 14.3438 9.24375 14.3438 8.81875 14.1667 8.42917 13.8833 8.14583L8.99583 3.29375C8.7125 3.01042 8.32292 2.83333 7.93333 2.83333 7.54375 2.83333 7.11875 3.01042 6.83542 3.29375L6.30417 3.825 13.3521 10.8729 13.8833 10.3417Z"/><path d="M21.0021 22.8438C20.8604 22.9854 20.6479 23.0562 20.4708 23.0562 20.2937 23.0562 20.0812 22.9854 19.9396 22.8438L11.1562 14.0958C11.0146 13.9542 10.9437 13.7417 10.9437 13.5646 10.9437 13.3875 11.0146 13.175 11.1562 13.0333L12.2542 11.9708 5.20625 4.92292C4.74583 5.38333 4.32083 5.80833 4.0375 6.09167 3.32917 6.76458 2.90417 7.65 2.86875 8.60625 2.7625 10.2 3.15208 11.7229 3.68333 13.2104 4.25 14.5208 4.99375 15.7604 5.80833 16.9292 8.7125 21.2854 12.3604 25.075 16.6104 28.0854 17.3188 28.6167 18.0625 29.0771 18.8417 29.5021 20.6125 30.3875 22.4896 31.025 24.5083 31.1667 25.8542 31.2729 27.2 30.7417 28.1208 29.75L29.0771 28.7938 22.0646 21.7458 21.0021 22.8438Z"/><path d="M30.7062 25.0042 25.8188 20.1167C25.5354 19.8333 25.1458 19.6562 24.7208 19.6562 24.2958 19.6562 23.9062 19.8333 23.6229 20.1167L23.0917 20.6833 30.1396 27.7313 30.6708 27.2C30.9542 26.9167 31.1313 26.5271 31.1313 26.1021 31.1313 25.6771 30.9896 25.2875 30.7062 25.0042Z"/></g></svg>